<svg xmlns="http://www.w3.org/2000/svg" width="339.27" height="107.708" viewBox="0 0 339.27 107.708">
  <g id="Group_28" data-name="Group 28" transform="translate(-117.73 -2.292)">
    <g id="Group_27" data-name="Group 27">
      <rect id="Rectangle_1" data-name="Rectangle 1" width="44.956" height="57.389" transform="translate(190.528 57.626) rotate(164.632)" fill="#e95631"/>
      <rect id="Rectangle_2" data-name="Rectangle 2" width="44.955" height="57.389" transform="translate(190.547 57.701) rotate(148.273)" fill="#f12859"/>
      <rect id="Rectangle_3" data-name="Rectangle 3" width="44.956" height="57.388" transform="matrix(-0.651, 0.759, -0.759, -0.651, 190.563, 57.691)" fill="#a812a6"/>
    </g>
    <g id="Group_2" data-name="Group 2" fill="#ffffff" transform="translate(190.057 38.792)">
      <path id="Path_1" data-name="Path 1" d="M126.715,47.418v2.736L114.5,63.035l-.766.807.722.846,12.786,14.994V82.4h-6.266L107.791,66.2,105.9,63.879l1.851-2.056,12.976-14.407h5.988m-21.119,0V82.4H98.664V47.418H105.6" transform="translate(-98.664 -45.842)"/>
      <path id="Path_2" data-name="Path 2" d="M160.832,62.557c8.15,0,13.842,5.476,13.842,13.317V88.086h-5.2V82.619l-2.2,2.722a10.155,10.155,0,0,1-8.18,3.8c-7.179,0-12-5.33-12-13.263,0-7.842,5.649-13.317,13.737-13.317m.053,21.7c4.582,0,7.909-3.526,7.909-8.381,0-4.887-3.326-8.434-7.909-8.434s-7.909,3.547-7.909,8.434c0,4.855,3.326,8.381,7.909,8.381" transform="translate(-116.843 -51.525)"/>
      <path id="Path_3" data-name="Path 3" d="M214.824,62.641A6.9,6.9,0,0,1,219,63.968v5.814h-2.092a5.192,5.192,0,0,0-4.394-2.311c-3.419,0-5.807,3.144-5.807,7.646v13h-5.881V63.639h5.566v6.985l2.316-4.153a6.965,6.965,0,0,1,6.118-3.831" transform="translate(-137.011 -51.556)"/>
      <path id="Path_4" data-name="Path 4" d="M260.237,44.9V70.242c0,7.222-5.476,12.266-13.317,12.266-8.05,0-13.893-5.577-13.893-13.263,0-7.717,5.247-13.317,12.477-13.317a9.649,9.649,0,0,1,6.768,2.6l2.086,1.973V44.9h5.879m-13.42,32.731c4.519,0,7.847-3.519,7.907-8.381,0-4.887-3.326-8.434-7.907-8.434s-7.909,3.547-7.909,8.434c0,4.855,3.326,8.381,7.909,8.381" transform="translate(-149.098 -44.895)"/>
      <path id="Path_5" data-name="Path 5" d="M298.526,45.315c6.8,0,12.7,2.72,14.156,6.5v2.643h-5.3c-.971-2.771-4.318-4.624-8.6-4.624-4.9,0-8.328,2.388-8.328,5.807,0,4.36,4.846,4.974,9.976,5.625,8.093,1.025,13.822,2.331,13.822,9.829a10.35,10.35,0,0,1-3.048,7.524c-2.762,2.78-7.1,4.313-12.212,4.313-6.627,0-12.34-2.944-14-7.183V73.105h5.332c.983,3.175,4.5,5.308,8.968,5.308h.176c5.036,0,8.693-2.6,8.693-6.175,0-4.431-5.1-5.1-10.034-5.748-8.092-1.063-13.818-2.4-13.818-9.961,0-6.707,5.711-11.214,14.209-11.214" transform="translate(-168.35 -45.053)"/>
      <path id="Path_6" data-name="Path 6" d="M343.621,54.988v5.779h5.988V64.6h-5.988V76.5c0,2.893,1.891,4.914,4.6,4.914a13.188,13.188,0,0,0,1.6-.1v4.444a19.611,19.611,0,0,1-4.437.54c-4.643,0-7.641-3.453-7.641-8.8V64.6H334.01V60.767h3.731V54.988h5.88" transform="translate(-187.003 -48.683)"/>
      <path id="Path_7" data-name="Path 7" d="M377.426,62.557c8.148,0,13.84,5.476,13.84,13.317V88.086h-5.2V82.619l-2.2,2.722a10.152,10.152,0,0,1-8.178,3.8c-7.18,0-12-5.33-12-13.263,0-7.842,5.647-13.317,13.737-13.317m.052,21.7c4.581,0,7.909-3.526,7.909-8.381,0-4.887-3.328-8.434-7.909-8.434s-7.909,3.547-7.909,8.434c0,4.855,3.327,8.381,7.909,8.381" transform="translate(-198.143 -51.525)"/>
      <path id="Path_8" data-name="Path 8" d="M425.362,62.557c5.07,0,9.482,1.783,10.638,4.269v1.61h-4.644c-.816-1.575-2.995-2.574-5.836-2.574-3.328,0-5.651,1.588-5.651,3.863,0,2.925,3.424,3.347,7.049,3.8,6.148.76,10.5,1.715,10.5,7.079,0,5.025-4.849,8.536-11.793,8.536-4.883,0-9.3-2.093-10.636-5.008V82.2h4.67c.9,2.179,3.349,3.625,6.336,3.625,3.449,0,5.857-1.783,5.857-4.335,0-3.124-3.65-3.538-7.18-3.936-6.07-.686-10.366-1.6-10.366-7.2,0-4.592,4.547-7.8,11.057-7.8" transform="translate(-217.142 -51.525)"/>
      <path id="Path_9" data-name="Path 9" d="M465.338,44.9V62.309l2.228-2.992a8.427,8.427,0,0,1,6.942-3.391,8.947,8.947,0,0,1,6.524,2.55,9.592,9.592,0,0,1,2.589,6.93V81.456h-5.882V67.793a7.165,7.165,0,0,0-1.914-5.215,6,6,0,0,0-4.313-1.768c-3.576,0-6.175,2.861-6.175,6.8V81.457h-5.88V44.9h5.88" transform="translate(-234.091 -44.895)"/>
    </g>
  </g>
</svg>
